<svg width="32" height="32" viewBox="0 0 32 32" fill="none" xmlns="http://www.w3.org/2000/svg">
<rect x="0.5" y="0.5" width="31" height="31" rx="7.5" stroke="#FBEBFF"/>
<path fill-rule="evenodd" clip-rule="evenodd" d="M21.2299 16.7903H12.6279L16.386 20.6467C16.6863 20.9549 16.6863 21.4607 16.386 21.7689C16.0857 22.077 15.6005 22.077 15.3002 21.7689L10.2253 16.5611C9.92492 16.2529 9.92492 15.755 10.2253 15.4468L15.2925 10.2311C15.5928 9.92295 16.078 9.92295 16.3783 10.2311C16.6786 10.5393 16.6786 11.0372 16.3783 11.3454L12.6279 15.2097H21.2299C21.6535 15.2097 22 15.5654 22 16C22 16.4346 21.6535 16.7903 21.2299 16.7903Z" fill="#FBEBFF"/>
</svg>
