<svg width="27" height="27" viewBox="0 0 27 27" fill="none" xmlns="http://www.w3.org/2000/svg">
<path d="M22.9496 27H17.5497C17.1917 27 16.8484 26.8577 16.5952 26.6046C16.342 26.3514 16.1998 26.0081 16.1997 25.6501V17.5503H10.7998V25.6501C10.7998 26.0081 10.6575 26.3514 10.4044 26.6046C10.1512 26.8577 9.80787 27 9.44983 27H4.04994C2.97623 26.9988 1.94682 26.5717 1.18758 25.8124C0.428333 25.0532 0.00124825 24.0238 2.694e-05 22.9501V12.0606C-0.00258021 11.2378 0.184078 10.4254 0.545579 9.6863C0.907073 8.94719 1.43372 8.30117 2.08479 7.7981L11.0136 0.853776C11.7243 0.300446 12.5993 0 13.5 0C14.4007 0 15.2757 0.300446 15.9864 0.853776L24.9152 7.79841C25.5663 8.30142 26.093 8.94744 26.4545 9.68655C26.816 10.4257 27.0026 11.238 27 12.0607V22.9501C26.9988 24.0239 26.5716 25.0534 25.8123 25.8126C25.053 26.5718 24.0235 26.9989 22.9496 27ZM18.8997 24.3H22.9496C23.3075 24.2996 23.6507 24.1573 23.9037 23.9042C24.1568 23.6511 24.2992 23.308 24.2996 22.9501V12.0606C24.3009 11.6492 24.2077 11.2431 24.027 10.8736C23.8463 10.504 23.5831 10.181 23.2576 9.92948L14.3287 2.98491C14.0918 2.8004 13.8001 2.70022 13.4998 2.70022C13.1995 2.70022 12.9078 2.8004 12.6708 2.98491L3.74195 9.92936C3.41645 10.1808 3.15313 10.5039 2.97239 10.8734C2.79166 11.2429 2.69835 11.649 2.69969 12.0604V22.9501C2.70011 23.308 2.84247 23.6511 3.09554 23.9042C3.34862 24.1573 3.69177 24.2996 4.04962 24.3H8.09956V17.5503C8.10038 16.8344 8.38514 16.1482 8.89132 15.642C9.39743 15.1358 10.0837 14.8511 10.7995 14.8503H16.1994C16.9153 14.8511 17.6017 15.1358 18.1079 15.6419C18.6141 16.1481 18.8988 16.8344 18.8997 17.5503V24.3Z" fill="#FBEBFF"/>
</svg>
