<svg width="19" height="19" viewBox="0 0 19 19" fill="none" xmlns="http://www.w3.org/2000/svg">
<path d="M16.8632 2.27504C16.6782 2.28316 16.498 2.33467 16.3356 2.39973C16.1747 2.46435 15.249 2.85949 13.8819 3.44399C12.5148 4.02849 10.7376 4.78963 8.97602 5.54438C5.45276 7.05387 1.99055 8.53911 1.99055 8.53911L2.01578 8.52946C2.01578 8.52946 1.80682 8.59931 1.59496 8.74692C1.48904 8.82073 1.37507 8.91601 1.28176 9.05493C1.18845 9.19384 1.12023 9.39072 1.14594 9.59895C1.23624 10.3304 1.99426 10.5378 1.99426 10.5378L1.99723 10.5393L5.38012 11.6971C5.46637 11.9848 6.40616 15.1216 6.61289 15.7858C6.72707 16.1531 6.83393 16.3649 6.94539 16.5095C7.00117 16.5818 7.05963 16.6377 7.12426 16.6787C7.14994 16.6949 7.17695 16.7071 7.20368 16.718H7.20516C7.20844 16.7195 7.21153 16.7196 7.21481 16.721L7.2059 16.7188C7.21211 16.7213 7.21824 16.7255 7.22446 16.7277C7.23652 16.7319 7.24391 16.7317 7.25934 16.7351C7.64677 16.8704 7.96739 16.6193 7.96739 16.6193L7.98075 16.6089L10.0589 14.6815L13.4314 17.311L13.4737 17.3303C14.064 17.5924 14.5978 17.4462 14.8935 17.2056C15.1891 16.9651 15.3054 16.6549 15.3054 16.6549L15.318 16.6223L17.7962 3.70598C17.8596 3.41702 17.8686 3.16724 17.8088 2.94153C17.749 2.71582 17.6037 2.51961 17.4214 2.41086C17.2391 2.30211 17.0483 2.26692 16.8632 2.27504ZM16.8833 3.04766C16.9585 3.04418 17.0142 3.05277 17.0317 3.06325C17.0493 3.07372 17.0572 3.07234 17.074 3.13598C17.0909 3.19962 17.1 3.33366 17.054 3.54344L17.0525 3.5479L14.5884 16.3892C14.5826 16.4022 14.5313 16.5209 14.414 16.6163C14.2944 16.7136 14.1614 16.7896 13.8084 16.6416L10.1205 13.7656L10.0166 13.684L10.0143 13.6862L8.91145 12.8586L15.1095 5.56665C15.1571 5.51076 15.1875 5.44227 15.197 5.36947C15.2066 5.29666 15.1948 5.22266 15.1631 5.1564C15.1315 5.09014 15.0814 5.03446 15.0187 4.9961C14.9561 4.95774 14.8838 4.93834 14.8104 4.94024C14.7386 4.9421 14.6689 4.96423 14.6092 5.00407L5.64063 10.9831L2.25254 9.82309C2.25254 9.82309 1.91611 9.63587 1.9 9.50543C1.89911 9.49821 1.89514 9.50475 1.91262 9.47872C1.9301 9.45269 1.97405 9.40874 2.02914 9.37036C2.13934 9.29358 2.26516 9.24715 2.26516 9.24715L2.27778 9.2427L2.29039 9.2375C2.29039 9.2375 5.75278 7.75219 9.27586 6.24278C11.0374 5.48807 12.8142 4.72749 14.181 4.14313C15.5474 3.55892 16.5347 3.13842 16.6183 3.10481C16.7135 3.0667 16.8081 3.05114 16.8833 3.04766ZM12.7731 7.14157L8.07278 12.6716L8.07055 12.6738C8.06321 12.6827 8.05628 12.6918 8.04977 12.7013C8.04231 12.7116 8.03538 12.7222 8.02899 12.7332C8.00258 12.778 7.98566 12.8278 7.97926 12.8794C7.97926 12.8804 7.97926 12.8814 7.97926 12.8824L7.36696 15.6359C7.35678 15.6062 7.34965 15.5953 7.33875 15.5602V15.5595C7.14427 14.9346 6.2576 11.9764 6.13493 11.5672L12.7731 7.14157ZM8.60344 13.5778L9.44805 14.2116L8.20711 15.362L8.60344 13.5778Z" fill="white"/>
</svg>
